<?xml version="1.0" standalone="no"?>
<!DOCTYPE svg PUBLIC "-//W3C//DTD SVG 20010904//EN"
 "http://www.w3.org/TR/2001/REC-SVG-20010904/DTD/svg10.dtd">
<svg version="1.0" xmlns="http://www.w3.org/2000/svg"
 width="249.000000pt" height="92.000000pt" viewBox="0 0 249.000000 92.000000"
 preserveAspectRatio="xMidYMid meet">

<g transform="translate(0.000000,92.000000) scale(0.100000,-0.100000)"
fill="#fff" stroke="none">
<path d="M30 900 c-11 -11 -20 -29 -20 -40 0 -11 9 -29 20 -40 20 -20 33 -20
568 -20 604 0 592 -1 592 60 0 61 12 60 -592 60 -535 0 -548 0 -568 -20z"/>
<path d="M20 500 c-11 -11 -20 -29 -20 -40 0 -11 9 -29 20 -40 20 -20 33 -20
1220 -20 1187 0 1200 0 1220 20 25 25 25 55 0 80 -20 20 -33 20 -1220 20
-1187 0 -1200 0 -1220 -20z"/>
<path d="M1332 105 c-30 -22 -30 -69 1 -90 21 -13 94 -15 572 -13 l548 3 20
28 21 27 -21 28 -20 27 -549 3 c-485 2 -552 0 -572 -13z"/>
</g>
</svg>
